# xmcd
#
# Track frame offsets:
#	150
#	12726
#	39152
#	67534
#	85782
#	96555
#	109337
#	122391
#	146275
#	169996
#	191983
#
# Disc length: 2795 seconds
#
# Revision: 0
# Processed by: cddbd v1.5.2PL0 Copyright (c) Steve Scherf et al.
# Submitted via: MusicManager 7.3.0.0 
#
DISCID=8f0ae90b
DTITLE=Various Artist - First Train Home - Disk 02
DYEAR=1140
DGENRE=blues
TTITLE0=Cream - Strange Brew
TTITLE1=Free - Mr Big
TTITLE2=Country Joe and The Fish - Crystal Blues
TTITLE3=The Doors - Roadhouse Blues
TTITLE4=Jimi Hendrix - Little Wing 
TTITLE5=Canned Heat - Going Up The Country
TTITLE6=Slim Harpo - Scratch My Back
TTITLE7=Stevie Ray Vaughan - Texas Flood
TTITLE8=Melvin Taylor - I'll Play The Blues For You
TTITLE9=Dutch Mason Blues Band - The Thrill Is Gone
TTITLE10=Fleetwood Mac - Fleetwood Mac
EXTD=
EXTT0=
EXTT1=
EXTT2=
EXTT3=
EXTT4=
EXTT5=
EXTT6=
EXTT7=
EXTT8=
EXTT9=
EXTT10=
PLAYORDER=
